<?xml version="1.0" encoding="UTF-8"?>
<svg version="1.1" xmlns="http://www.w3.org/2000/svg" width="24" height="24">
<path d="M0 0 C4.55555556 0.55555556 4.55555556 0.55555556 6 2 C6.12658222 4.65822657 6.18520214 7.27887424 6.1875 9.9375 C6.19974609 10.67935547 6.21199219 11.42121094 6.22460938 12.18554688 C6.22988478 14.12513629 6.12188902 16.0642371 6 18 C5.34 18.66 4.68 19.32 4 20 C-0.55555556 19.44444444 -0.55555556 19.44444444 -2 18 C-2.12658222 15.34177343 -2.18520214 12.72112576 -2.1875 10.0625 C-2.19974609 9.32064453 -2.21199219 8.57878906 -2.22460938 7.81445312 C-2.22988478 5.87486371 -2.12188902 3.9357629 -2 2 C-1.34 1.34 -0.68 0.68 0 0 Z " fill="#1E84D3" transform="translate(10,2)"/>
<path d="M0 0 C1.98 0 3.96 0 6 0 C7.80746134 1.80746134 7.17303483 4.50445781 7.1875 6.9375 C7.20167969 8.01902344 7.21585937 9.10054687 7.23046875 10.21484375 C7 13 7 13 5 15 C3.35 14.67 1.7 14.34 0 14 C0 9.38 0 4.76 0 0 Z " fill="#F8BE09" transform="translate(0,7)"/>
<path d="M0 0 C1.4540625 0.0309375 1.4540625 0.0309375 2.9375 0.0625 C2.9375 3.6925 2.9375 7.3225 2.9375 11.0625 C1.2875 11.3925 -0.3625 11.7225 -2.0625 12.0625 C-4.0625 10.0625 -4.0625 10.0625 -4.29296875 7.93359375 C-4.27169922 6.72896484 -4.27169922 6.72896484 -4.25 5.5 C-4.24355469 4.69433594 -4.23710937 3.88867188 -4.23046875 3.05859375 C-3.95251882 -0.24448563 -3.39650266 0.06931638 0 0 Z " fill="#D33B32" transform="translate(21.0625,9.9375)"/>
<path d="M0 0 C1.98 0.99 1.98 0.99 4 2 C4 7.28 4 12.56 4 18 C2.02 18.99 2.02 18.99 0 20 C0 13.4 0 6.8 0 0 Z " fill="#2195F1" transform="translate(12,2)"/>
<path d="M0 0 C0.99 0 1.98 0 3 0 C3 4.95 3 9.9 3 15 C2.01 14.67 1.02 14.34 0 14 C0 9.38 0 4.76 0 0 Z " fill="#DEA805" transform="translate(0,7)"/>
<path d="M0 0 C0.99 0 1.98 0 3 0 C3 3.63 3 7.26 3 11 C2.01 11.33 1.02 11.66 0 12 C0 8.04 0 4.08 0 0 Z " fill="#F34235" transform="translate(21,10)"/>
<path d="M0 0 C0.33 1.32 0.66 2.64 1 4 C2.98 4 4.96 4 7 4 C7 4.33 7 4.66 7 5 C4.69 5.33 2.38 5.66 0 6 C0 4.02 0 2.04 0 0 Z " fill="#86678C" transform="translate(17,4)"/>
<path d="M0 0 C0 0.99 0 1.98 0 3 C-2.97 2.505 -2.97 2.505 -6 2 C-6 1.67 -6 1.34 -6 1 C-4.02 0.67 -2.04 0.34 0 0 Z " fill="#AEA543" transform="translate(6,4)"/>
<path d="M0 0 C4 1 4 1 4 1 Z " fill="#E33E32" transform="translate(19,23)"/>
<path d="M0 0 C4 1 4 1 4 1 Z " fill="#1E8CE3" transform="translate(10,23)"/>
<path d="M0 0 C4 1 4 1 4 1 Z " fill="#EBB206" transform="translate(1,23)"/>
<path d="M0 0 C4 1 4 1 4 1 Z " fill="#1E8CE3" transform="translate(10,0)"/>
<path d="" fill="#F44336" transform="translate(0,0)"/>
<path d="" fill="#D1392E" transform="translate(0,0)"/>
<path d="" fill="#2196F3" transform="translate(0,0)"/>
<path d="" fill="#1C81D1" transform="translate(0,0)"/>
<path d="" fill="#FFC207" transform="translate(0,0)"/>
<path d="" fill="#DCA605" transform="translate(0,0)"/>
<path d="" fill="#7B668F" transform="translate(0,0)"/>
<path d="" fill="#879F72" transform="translate(0,0)"/>
<path d="" fill="#2095F2" transform="translate(0,0)"/>
<path d="" fill="#1C82D2" transform="translate(0,0)"/>
<path d="" fill="#2196F3" transform="translate(0,0)"/>
<path d="" fill="#1C81D2" transform="translate(0,0)"/>
</svg>
