<!-- <svg xmlns="http://www.w3.org/2000/svg" x="0px" y="0px" width="100" height="100" viewBox="0 0 16 16">
<path d="M 10.447266 0.265625 A 0.50005 0.50005 0 0 0 10.103516 0.41796875 L 5.65625 4.8671875 L 3.0957031 7.4257812 A 0.50005 0.50005 0 0 0 2.9785156 7.6035156 C 1.769869 8.9739016 1.7865696 11.063913 3.0957031 12.373047 L 5.65625 14.933594 C 7.0176322 16.294976 9.242133 16.294976 10.603516 14.933594 L 12.853516 12.683594 A 0.50063809 0.50063809 0 1 0 12.144531 11.976562 L 9.8945312 14.226562 C 8.9159134 15.20518 7.3418991 15.20518 6.3632812 14.226562 L 3.8027344 11.666016 C 2.8241166 10.687398 2.8241166 9.1114303 3.8027344 8.1328125 L 6.3632812 5.5742188 C 7.3418991 4.5956009 8.9159135 4.5956009 9.8945312 5.5742188 L 12.144531 7.8242188 A 0.50063784 0.50063784 0 1 0 12.853516 7.1171875 L 10.603516 4.8671875 C 9.9106907 4.174363 8.9943718 3.8431189 8.0820312 3.8554688 L 10.8125 1.125 A 0.50005 0.50005 0 0 0 10.447266 0.265625 z M 7.328125 9.4003906 A 0.50005 0.50005 0 1 0 7.328125 10.400391 L 14.228516 10.400391 A 0.50005 0.50005 0 1 0 14.228516 9.4003906 L 7.328125 9.4003906 z"></path>
</svg> -->


<svg width="24px" height="24px" viewBox="0 0 24 24" role="img" xmlns="http://www.w3.org/2000/svg" ><path d="M13.483 0a1.374 1.374 0 0 0-.961.438L7.116 6.226l-3.854 4.126a5.266 5.266 0 0 0-1.209 2.104 5.35 5.35 0 0 0-.125.513 5.527 5.527 0 0 0 .062 2.362 5.83 5.83 0 0 0 .349 1.017 5.938 5.938 0 0 0 1.271 1.818l4.277 4.193.039.038c2.248 2.165 5.852 2.133 8.063-.074l2.396-2.392c.54-.54.54-1.414.003-1.955a1.378 1.378 0 0 0-1.951-.003l-2.396 2.392a3.021 3.021 0 0 1-4.205.038l-.02-.019-4.276-4.193c-.652-.64-.972-1.469-.948-2.263a2.68 2.68 0 0 1 .066-.523 2.545 2.545 0 0 1 .619-1.164L9.13 8.114c1.058-1.134 3.204-1.27 4.43-.278l3.501 2.831c.593.48 1.461.387 1.94-.207a1.384 1.384 0 0 0-.207-1.943l-3.5-2.831c-.8-.647-1.766-1.045-2.774-1.202l2.015-2.158A1.384 1.384 0 0 0 13.483 0zm-2.866 12.815a1.38 1.38 0 0 0-1.38 1.382 1.38 1.38 0 0 0 1.38 1.382H20.79a1.38 1.38 0 0 0 1.38-1.382 1.38 1.38 0 0 0-1.38-1.382z"/></svg>