<svg version="1.1" id="Layer_1" xmlns="http://www.w3.org/2000/svg" xmlns:xlink="http://www.w3.org/1999/xlink" x="0px" y="0px"
	 width="100%" viewBox="0 0 400 400" enable-background="new 0 0 400 400" xml:space="preserve">
<path fill="#000000" opacity="1.000000" stroke="none" 
	d="
M267.000000,401.000000 
	C178.027649,401.000000 89.555305,401.000000 1.041477,401.000000 
	C1.041477,267.735992 1.041477,134.471954 1.041477,1.103967 
	C134.222290,1.103967 267.444672,1.103967 400.833557,1.103967 
	C400.833557,134.333160 400.833557,267.666565 400.833557,401.000000 
	C356.472015,401.000000 311.986023,401.000000 267.000000,401.000000 
M170.890930,267.492706 
	C170.574356,267.656586 170.257782,267.820465 169.500778,268.022247 
	C169.500778,268.022247 169.061737,267.970734 168.629562,267.272797 
	C163.730743,266.246185 158.831909,265.219574 153.316803,263.869202 
	C150.573181,261.904755 147.829544,259.940338 144.976578,257.293121 
	C143.997482,255.853989 143.018372,254.414871 142.008377,252.995041 
	C142.008377,252.995041 142.028168,252.965378 141.940613,252.183350 
	C137.033340,240.737305 139.301773,230.460648 147.052307,221.067566 
	C147.052307,221.067566 147.050018,221.026093 147.550217,220.915024 
	C147.708984,220.627823 147.867767,220.340622 148.063324,220.060745 
	C148.063324,220.060745 148.075592,220.025299 148.744232,219.998108 
	C149.868561,219.015350 150.992889,218.032593 152.652420,216.852066 
	C153.101257,216.513611 153.550110,216.175171 154.767441,215.941788 
	C162.172211,214.240158 169.576996,212.538528 177.875336,210.968185 
	C179.708191,210.965134 181.557571,211.121658 183.371323,210.933975 
	C199.036758,209.312958 214.707657,207.732849 230.352798,205.931259 
	C241.875397,204.604401 252.356018,199.815018 260.239136,191.765366 
	C269.204987,182.610138 273.909912,171.184052 272.086426,157.505783 
	C269.304413,136.637482 254.878403,122.509750 233.903275,120.139763 
	C222.158447,118.812706 213.787567,113.114876 208.308380,102.783150 
	C204.327377,95.276405 206.440125,87.211983 206.114075,79.383278 
	C206.082886,78.634666 207.739975,77.463127 208.823929,77.072853 
	C229.706268,69.554108 235.571030,43.673199 219.084259,26.704964 
	C211.647018,19.050524 201.922546,18.063589 191.945587,19.186501 
	C186.061935,19.848711 180.754150,22.319393 176.253906,26.259447 
	C162.221176,38.545410 163.178558,64.960518 181.661362,74.568047 
	C188.653320,78.202530 189.670746,82.289276 189.024963,88.598984 
	C188.957474,89.258629 189.005646,89.931473 189.018845,90.597816 
	C189.379532,108.807518 198.101212,122.311256 213.775803,130.561127 
	C220.757843,134.235901 229.280075,135.034897 237.144547,136.971527 
	C251.726074,140.562225 259.740601,157.716125 253.949554,171.422852 
	C248.487808,184.350128 236.895813,188.301941 224.890411,190.797394 
	C217.472473,192.339279 209.587936,191.533905 201.937683,192.111282 
	C198.920746,192.338959 195.971298,193.461075 192.175766,194.033920 
	C189.677811,194.015442 187.163498,193.804596 184.685074,194.015594 
	C178.023956,194.582718 171.295242,194.897293 164.754059,196.150681 
	C160.013367,197.059097 155.529266,199.306641 150.991623,200.979355 
	C150.991623,200.979355 150.998154,200.914856 150.275635,201.019897 
	C149.969650,201.306046 149.663666,201.592194 149.102081,201.215118 
	C148.741791,201.434067 148.381500,201.653000 147.336563,201.998276 
	C146.205780,202.653687 145.074997,203.309097 143.999008,203.992905 
	C143.999008,203.992905 143.965195,203.941223 143.264267,204.023727 
	C141.499680,205.324875 139.735107,206.626022 137.980362,207.944382 
	C137.980362,207.944382 137.967804,207.954544 137.451553,208.097122 
	C137.269684,208.393677 137.087799,208.690216 136.969925,208.988174 
	C136.969925,208.988174 136.941803,208.930649 136.346527,209.167389 
	C135.213516,210.424164 134.080521,211.680954 132.994812,212.992081 
	C132.994812,212.992081 132.939087,212.947205 132.298981,213.205521 
	C122.924561,223.341034 121.781609,235.731567 123.468987,248.471909 
	C124.045998,252.828552 127.043968,256.864532 128.990555,261.017944 
	C128.990555,261.017944 128.945694,261.062164 128.999695,261.778564 
	C129.927338,263.278595 130.718094,264.886749 131.804153,266.261658 
	C141.030899,277.942596 153.585510,282.528961 167.994766,283.027588 
	C167.994766,283.027588 167.932846,283.046967 168.100449,283.531830 
	C168.438309,283.369537 168.776169,283.207245 169.763458,283.253784 
	C170.830734,283.975342 171.828247,284.841797 172.976715,285.394653 
	C179.915192,288.734558 184.924667,293.879120 187.979782,301.844055 
	C188.653473,306.448883 189.260635,311.064728 190.021393,315.655121 
	C190.659073,319.502960 189.126541,322.160767 185.536194,324.060425 
	C185.536194,324.060425 185.230484,324.203796 184.541168,324.045105 
	C183.674591,324.675568 182.808014,325.306000 181.258911,326.026001 
	C179.808426,326.984802 178.357925,327.943573 176.290680,329.192017 
	C168.916550,336.652893 165.974960,345.622559 167.060486,356.777618 
	C174.137360,377.171967 185.423721,384.818420 203.987122,381.977112 
	C222.797867,379.097931 235.634705,355.531097 224.971405,338.439545 
	C224.971405,338.439545 224.836990,338.051178 224.901810,337.504059 
	C224.608719,337.304840 224.315628,337.105621 224.023621,336.971527 
	C224.023621,336.971527 224.085541,336.951324 224.002335,336.236664 
	C222.353333,334.459167 220.704330,332.681702 218.768997,330.273895 
	C215.079941,327.826508 211.324677,325.470123 207.748642,322.867432 
	C206.859863,322.220581 206.177689,320.821625 206.043030,319.691803 
	C205.578278,315.792297 205.036743,311.846130 205.176254,307.940979 
	C205.591461,296.317993 201.163101,287.100922 191.927628,279.457123 
	C191.623932,279.275787 191.320236,279.094452 190.857910,278.467316 
	C190.670593,278.185059 190.408707,278.024292 189.908447,277.472656 
	C189.611969,277.288849 189.315506,277.105042 188.872589,276.474884 
	C188.691452,276.189911 188.433090,276.028625 187.819580,275.340210 
	C185.557693,274.210114 183.295807,273.080017 181.001266,271.996765 
	C181.001266,271.996765 181.055054,271.977844 180.904282,271.466156 
	C180.593979,271.375305 180.283661,271.284485 179.535187,271.055786 
	C179.535187,271.055786 179.081680,270.982910 178.898621,270.482971 
	C178.587891,270.393890 178.277176,270.304779 177.542053,270.069031 
	C177.542053,270.069031 177.101440,269.982666 176.746735,269.321991 
	C174.836365,268.871979 172.925980,268.421936 170.999390,268.001007 
	C170.999390,268.001007 171.024399,267.979279 170.890930,267.492706 
M125.415565,117.854500 
	C128.519089,133.852280 135.619247,147.631042 147.437195,159.054962 
	C152.633102,164.077621 157.014648,169.933548 161.931503,175.258270 
	C164.093811,177.599945 165.935669,180.639175 170.051468,180.021088 
	C173.779221,179.461273 177.588623,179.442856 181.314407,178.873810 
	C182.577469,178.680908 183.899384,177.712982 184.759216,176.721725 
	C185.030121,176.409424 184.073669,174.693588 183.357742,173.915787 
	C174.744705,164.558289 165.910172,155.399643 157.459106,145.899414 
	C149.091980,136.493546 142.697006,125.999825 141.898941,112.162323 
	C141.421631,110.182396 140.944321,108.202469 140.411896,105.993858 
	C136.107224,105.993858 131.819870,105.736481 127.598984,106.152893 
	C126.355339,106.275581 124.467995,108.216164 124.334114,109.478340 
	C124.069519,111.972786 124.822800,114.575188 125.415565,117.854500 
M267.067963,282.332550 
	C264.016449,274.025818 262.474854,264.666199 257.579285,257.645294 
	C249.042343,245.402161 238.462082,234.580032 228.650101,223.238556 
	C228.017731,222.507629 226.638672,222.121048 225.595490,222.098206 
	C220.439804,221.985275 215.277969,221.968857 210.123901,222.115158 
	C209.049194,222.145676 207.998093,223.007858 206.482712,223.691254 
	C216.098663,234.107132 225.122620,243.974976 234.252747,253.743591 
	C242.404037,262.464874 248.515808,272.341980 250.942459,284.106995 
	C253.429611,296.165314 253.221756,296.208008 265.501801,294.957092 
	C265.666748,294.940277 265.920441,295.018951 265.987762,294.935760 
	C266.971619,293.719971 268.707581,292.501923 268.736176,291.249512 
	C268.798187,288.534210 267.983917,285.798920 267.067963,282.332550 
z"/>
<path fill="#067AF0" opacity="1.000000" stroke="none" 
	d="
M190.072250,277.984985 
	C190.408707,278.024292 190.670593,278.185059 191.091003,278.894928 
	C191.586899,279.538727 191.849670,279.754913 192.112457,279.971100 
	C201.163101,287.100922 205.591461,296.317993 205.176254,307.940979 
	C205.036743,311.846130 205.578278,315.792297 206.043030,319.691803 
	C206.177689,320.821625 206.859863,322.220581 207.748642,322.867432 
	C211.324677,325.470123 215.079941,327.826508 219.003296,330.898834 
	C219.182816,333.045074 219.128021,334.566406 218.873764,335.845245 
	C215.345413,334.967255 211.963730,333.598938 208.697586,333.834259 
	C199.099869,334.525757 194.804993,330.458588 196.154510,320.820099 
	C196.521957,320.410583 196.752060,320.197174 197.292465,320.203796 
	C198.513550,322.589600 199.096619,325.029053 200.473801,326.876526 
	C201.620209,328.414398 203.644073,329.357605 205.410019,330.325714 
	C205.777878,330.527405 206.719696,329.682098 207.397003,329.319305 
	C206.598007,327.879547 205.798996,326.439789 204.830414,324.725708 
	C204.107498,323.300568 203.554153,322.149719 203.193390,320.654724 
	C205.426758,314.506470 202.240540,309.857910 200.100983,304.642975 
	C201.004089,301.351685 204.545776,298.021271 198.743378,295.902344 
	C193.946213,297.587036 195.308716,301.609711 194.592102,304.998383 
	C193.096680,305.006897 192.007935,305.015808 190.739746,304.744537 
	C189.662674,303.313507 188.765030,302.162659 187.867401,301.011810 
	C184.924667,293.879120 179.915192,288.734558 172.976715,285.394653 
	C171.828247,284.841797 170.830734,283.975342 169.143417,283.140503 
	C168.326523,283.033813 168.129684,283.040405 167.932846,283.046967 
	C167.932846,283.046967 167.994766,283.027588 167.738678,282.801636 
	C165.688354,281.766266 163.958694,280.734222 162.087158,280.191040 
	C157.363846,278.820282 152.360977,278.172882 147.889786,276.256470 
	C144.831665,274.945709 142.478973,271.989136 139.810913,269.768341 
	C136.212753,268.478149 135.817780,268.028687 133.260834,264.198639 
	C132.334595,262.811249 130.413071,262.088287 128.945694,261.062164 
	C128.945694,261.062164 128.990555,261.017944 128.972076,260.630951 
	C128.322968,257.867981 127.788857,255.461349 127.045494,253.121201 
	C123.166260,240.909073 123.279694,229.273026 131.392349,218.514801 
	C132.471420,217.083862 132.450562,214.823471 132.939087,212.947205 
	C132.939087,212.947205 132.994812,212.992081 133.329636,212.993988 
	C135.390900,213.693054 137.117325,214.390213 140.047104,215.573318 
	C138.712662,212.718781 137.827240,210.824722 136.941803,208.930649 
	C136.941803,208.930649 136.969925,208.988174 137.138641,208.840363 
	C137.562363,208.477753 137.782516,208.231750 137.967804,207.954544 
	C137.967804,207.954544 137.980362,207.944382 138.353455,207.957703 
	C139.483932,207.980087 140.241318,207.989120 140.999359,207.999084 
	C141.000000,208.000000 141.001831,208.001282 141.056427,208.331909 
	C141.961838,209.363647 142.812622,210.064774 144.365219,211.344254 
	C144.185379,208.016144 144.075287,205.978683 143.965195,203.941223 
	C143.965195,203.941223 143.999008,203.992905 144.333832,203.971649 
	C145.786179,203.257568 146.903702,202.564758 148.021225,201.871948 
	C148.381500,201.653000 148.741791,201.434067 149.511292,201.399567 
	C150.279709,201.360977 150.638931,201.137924 150.998154,200.914856 
	C150.998154,200.914856 150.991623,200.979355 151.352997,200.943298 
	C160.794724,199.583862 169.887070,198.336441 178.950516,196.905853 
	C183.657089,196.162979 188.312561,195.096298 192.991119,194.175903 
	C195.971298,193.461075 198.920746,192.338959 201.937683,192.111282 
	C209.587936,191.533905 217.472473,192.339279 224.890411,190.797394 
	C236.895813,188.301941 248.487808,184.350128 253.949554,171.422852 
	C259.740601,157.716125 251.726074,140.562225 237.144547,136.971527 
	C229.280075,135.034897 220.757843,134.235901 213.775803,130.561127 
	C198.101212,122.311256 189.379532,108.807518 189.018845,90.597816 
	C189.005646,89.931473 188.957474,89.258629 189.024963,88.598984 
	C189.670746,82.289276 188.653320,78.202530 181.661362,74.568047 
	C163.178558,64.960518 162.221176,38.545410 176.253906,26.259447 
	C180.754150,22.319393 186.061935,19.848711 191.945587,19.186501 
	C201.922546,18.063589 211.647018,19.050524 219.084259,26.704964 
	C235.571030,43.673199 229.706268,69.554108 208.823929,77.072853 
	C207.739975,77.463127 206.082886,78.634666 206.114075,79.383278 
	C206.440125,87.211983 204.327377,95.276405 208.308380,102.783150 
	C213.787567,113.114876 222.158447,118.812706 233.903275,120.139763 
	C254.878403,122.509750 269.304413,136.637482 272.086426,157.505783 
	C273.909912,171.184052 269.204987,182.610138 260.239136,191.765366 
	C252.356018,199.815018 241.875397,204.604401 230.352798,205.931259 
	C214.707657,207.732849 199.036758,209.312958 183.371323,210.933975 
	C181.557571,211.121658 179.708191,210.965134 177.093201,210.734009 
	C167.596771,206.940308 160.279190,209.220108 153.998947,215.836716 
	C153.550110,216.175171 153.101257,216.513611 152.029816,216.972198 
	C150.296661,218.069977 149.186127,219.047638 148.075592,220.025299 
	C148.075592,220.025299 148.063324,220.060745 147.856613,220.192322 
	C147.411957,220.525528 147.211990,220.759598 147.050018,221.026093 
	C147.050018,221.026093 147.052307,221.067566 146.663330,221.014572 
	C144.560059,220.711884 142.845734,220.462204 141.307526,220.238174 
	C141.160370,222.747025 141.329437,224.699707 140.883087,226.499771 
	C139.854355,230.648544 137.815018,234.669968 137.503128,238.841568 
	C137.125824,243.887833 136.375488,249.612671 142.028168,252.965378 
	C142.028168,252.965378 142.008377,252.995041 141.970245,253.292694 
	C140.619949,254.514526 139.307770,255.438690 137.580505,256.655182 
	C138.430237,257.835236 139.420517,259.210480 140.493317,260.700317 
	C142.313629,259.620483 143.699768,258.798187 145.085907,257.975922 
	C147.829544,259.940338 150.573181,261.904755 153.711548,264.379700 
	C158.582489,268.387848 163.594894,269.282410 169.061737,267.970734 
	C169.061737,267.970734 169.500778,268.022247 169.991959,268.011047 
	C170.663559,267.992950 170.843979,267.986115 171.024399,267.979279 
	C171.024399,267.979279 170.999390,268.001007 171.224731,268.279114 
	C173.333862,269.032379 175.217651,269.507507 177.101440,269.982666 
	C177.101440,269.982666 177.542053,270.069031 177.918427,270.301025 
	C178.528046,270.733765 178.790344,270.883728 179.081680,270.982910 
	C179.081680,270.982910 179.535187,271.055786 179.915436,271.281464 
	C180.520432,271.709869 180.773544,271.866760 181.055054,271.977844 
	C181.055054,271.977844 181.001266,271.996765 181.016495,272.347473 
	C181.219101,278.447540 184.472092,277.618896 188.097534,275.991089 
	C188.433090,276.028625 188.691452,276.189911 189.090302,276.904297 
	C189.562759,277.550781 189.817505,277.767883 190.072250,277.984985 
z"/>
<path fill="#0179F4" opacity="1.000000" stroke="none" 
	d="
M196.001053,320.998779 
	C194.804993,330.458588 199.099869,334.525757 208.697586,333.834259 
	C211.963730,333.598938 215.345413,334.967255 218.870361,336.049377 
	C219.066406,336.495972 219.068237,336.905914 219.133118,337.261658 
	C220.420929,341.034393 221.373627,344.699646 225.995148,345.438995 
	C224.577347,352.611603 228.467209,360.747162 220.738922,365.861084 
	C220.305328,366.148010 220.442688,367.188660 220.058395,367.677216 
	C217.910919,370.407410 216.103668,373.667145 213.370682,375.603271 
	C210.471924,377.656799 206.706146,378.543243 203.246841,379.728729 
	C200.911407,380.529114 198.101608,382.374054 196.979401,378.004120 
	C196.876709,377.604248 195.011490,377.132874 194.390656,377.472748 
	C189.211487,380.308044 185.888992,377.755737 181.561310,374.739868 
	C174.667130,369.935455 171.340622,363.454773 168.993637,355.654327 
	C169.349060,351.855713 169.649124,348.404510 170.250595,345.054474 
	C171.246994,344.909393 172.552032,344.649475 172.546875,344.418854 
	C172.443481,339.793243 176.530441,338.074493 178.767502,335.074646 
	C179.846054,333.628296 180.265671,331.690552 180.992004,329.986786 
	C181.000351,329.998260 180.983582,329.981415 181.345123,330.024719 
	C182.769806,330.756805 183.953003,331.314423 184.874451,332.157959 
	C188.124115,335.132843 189.523743,333.530182 190.502960,330.402344 
	C188.453262,328.767609 186.682755,327.355499 184.958923,325.652588 
	C185.080551,324.975769 185.155518,324.589783 185.230484,324.203796 
	C185.230484,324.203796 185.536194,324.060425 186.131805,324.049988 
	C188.145523,324.011963 189.563660,323.984436 191.069717,324.174255 
	C191.595520,324.448151 192.033401,324.504700 192.471268,324.561218 
	C191.984009,324.041138 191.496735,323.520996 191.035858,322.677185 
	C191.363098,321.556305 191.663986,320.759125 192.262817,320.153534 
	C193.707550,320.562988 194.854294,320.780884 196.001053,320.998779 
z"/>
<path fill="#0A7AEC" opacity="1.000000" stroke="none" 
	d="
M267.297974,282.702179 
	C267.983917,285.798920 268.798187,288.534210 268.736176,291.249512 
	C268.707581,292.501923 266.971619,293.719971 265.987762,294.935760 
	C265.920441,295.018951 265.666748,294.940277 265.501801,294.957092 
	C253.221756,296.208008 253.429611,296.165314 250.942459,284.106995 
	C248.515808,272.341980 242.404037,262.464874 234.252747,253.743591 
	C225.122620,243.974976 216.098663,234.107132 206.482712,223.691254 
	C207.998093,223.007858 209.049194,222.145676 210.123901,222.115158 
	C215.277969,221.968857 220.439804,221.985275 225.595490,222.098206 
	C226.638672,222.121048 228.017731,222.507629 228.650101,223.238556 
	C238.462082,234.580032 249.042343,245.402161 257.579285,257.645294 
	C262.474854,264.666199 264.016449,274.025818 267.297974,282.702179 
z"/>
<path fill="#097AED" opacity="1.000000" stroke="none" 
	d="
M141.807526,112.968002 
	C142.697006,125.999825 149.091980,136.493546 157.459106,145.899414 
	C165.910172,155.399643 174.744705,164.558289 183.357742,173.915787 
	C184.073669,174.693588 185.030121,176.409424 184.759216,176.721725 
	C183.899384,177.712982 182.577469,178.680908 181.314407,178.873810 
	C177.588623,179.442856 173.779221,179.461273 170.051468,180.021088 
	C165.935669,180.639175 164.093811,177.599945 161.931503,175.258270 
	C157.014648,169.933548 152.633102,164.077621 147.437195,159.054962 
	C135.619247,147.631042 128.519089,133.852280 125.480339,117.135666 
	C125.695541,115.283127 126.048462,114.133438 125.960480,113.018555 
	C125.625000,108.767807 127.680847,107.499657 131.721848,106.912041 
	C137.137909,106.124481 139.683960,108.901611 141.807526,112.968002 
z"/>
<path fill="#1879DE" opacity="1.000000" stroke="none" 
	d="
M168.938278,356.001740 
	C171.340622,363.454773 174.667130,369.935455 181.561310,374.739868 
	C185.888992,377.755737 189.211487,380.308044 194.390656,377.472748 
	C195.011490,377.132874 196.876709,377.604248 196.979401,378.004120 
	C198.101608,382.374054 200.911407,380.529114 203.246841,379.728729 
	C206.706146,378.543243 210.471924,377.656799 213.370682,375.603271 
	C216.103668,373.667145 217.910919,370.407410 220.058395,367.677216 
	C220.442688,367.188660 220.305328,366.148010 220.738922,365.861084 
	C228.467209,360.747162 224.577347,352.611603 225.917114,345.059265 
	C225.557800,342.445312 225.287003,340.646698 225.016205,338.848053 
	C235.634705,355.531097 222.797867,379.097931 203.987122,381.977112 
	C185.423721,384.818420 174.137360,377.171967 167.408997,356.388672 
	C168.151093,356.000397 168.544693,356.001068 168.938278,356.001740 
z"/>
<path fill="#0F7AE6" opacity="1.000000" stroke="none" 
	d="
M128.972687,261.420349 
	C130.413071,262.088287 132.334595,262.811249 133.260834,264.198639 
	C135.817780,268.028687 136.212753,268.478149 139.810913,269.768341 
	C142.478973,271.989136 144.831665,274.945709 147.889786,276.256470 
	C152.360977,278.172882 157.363846,278.820282 162.087158,280.191040 
	C163.958694,280.734222 165.688354,281.766266 167.740128,282.834045 
	C153.585510,282.528961 141.030899,277.942596 131.804153,266.261658 
	C130.718094,264.886749 129.927338,263.278595 128.972687,261.420349 
z"/>
<path fill="#0F7AE6" opacity="1.000000" stroke="none" 
	d="
M132.619049,213.076355 
	C132.450562,214.823471 132.471420,217.083862 131.392349,218.514801 
	C123.279694,229.273026 123.166260,240.909073 127.045494,253.121201 
	C127.788857,255.461349 128.322968,257.867981 128.944733,260.645508 
	C127.043968,256.864532 124.045998,252.828552 123.468987,248.471909 
	C121.781609,235.731567 122.924561,223.341034 132.619049,213.076355 
z"/>
<path fill="#0C79E5" opacity="1.000000" stroke="none" 
	d="
M141.984390,252.574371 
	C136.375488,249.612671 137.125824,243.887833 137.503128,238.841568 
	C137.815018,234.669968 139.854355,230.648544 140.883087,226.499771 
	C141.329437,224.699707 141.160370,222.747025 141.307526,220.238174 
	C142.845734,220.462204 144.560059,220.711884 146.642624,221.016098 
	C139.301773,230.460648 137.033340,240.737305 141.984390,252.574371 
z"/>
<path fill="#0F7AE6" opacity="1.000000" stroke="none" 
	d="
M192.583435,194.104919 
	C188.312561,195.096298 183.657089,196.162979 178.950516,196.905853 
	C169.887070,198.336441 160.794724,199.583862 151.322556,200.932129 
	C155.529266,199.306641 160.013367,197.059097 164.754059,196.150681 
	C171.295242,194.897293 178.023956,194.582718 184.685074,194.015594 
	C187.163498,193.804596 189.677811,194.015442 192.583435,194.104919 
z"/>
<path fill="#187BE1" opacity="1.000000" stroke="none" 
	d="
M168.993637,355.654327 
	C168.544693,356.001068 168.151093,356.000397 167.461716,355.999298 
	C165.974960,345.622559 168.916550,336.652893 176.680176,329.131866 
	C177.069672,329.071716 177.232025,329.240906 177.140198,329.598145 
	C176.248489,331.867859 175.528442,333.818695 174.630722,335.684052 
	C173.129944,338.802551 171.515701,341.866455 169.949188,344.953308 
	C169.649124,348.404510 169.349060,351.855713 168.993637,355.654327 
z"/>
<path fill="#0B7AE9" opacity="1.000000" stroke="none" 
	d="
M154.383194,215.889252 
	C160.279190,209.220108 167.596771,206.940308 176.646423,210.668365 
	C169.576996,212.538528 162.172211,214.240158 154.383194,215.889252 
z"/>
<path fill="#187BE1" opacity="1.000000" stroke="none" 
	d="
M191.964874,319.961975 
	C191.663986,320.759125 191.363098,321.556305 191.026825,322.916077 
	C190.991440,323.478729 190.981781,323.956879 190.981781,323.956879 
	C189.563660,323.984436 188.145523,324.011963 186.299438,324.029907 
	C189.126541,322.160767 190.659073,319.502960 190.021393,315.655121 
	C189.260635,311.064728 188.653473,306.448883 187.923584,301.427917 
	C188.765030,302.162659 189.662674,303.313507 190.781723,305.086639 
	C191.324799,306.806763 191.646469,307.904602 191.968781,309.459900 
	C191.967911,313.265564 191.966385,316.613770 191.964874,319.961975 
z"/>
<path fill="#3281D4" opacity="1.000000" stroke="none" 
	d="
M141.853241,112.565163 
	C139.683960,108.901611 137.137909,106.124481 131.721848,106.912041 
	C127.680847,107.499657 125.625000,108.767807 125.960480,113.018555 
	C126.048462,114.133438 125.695541,115.283127 125.350166,116.774895 
	C124.822800,114.575188 124.069519,111.972786 124.334114,109.478340 
	C124.467995,108.216164 126.355339,106.275581 127.598984,106.152893 
	C131.819870,105.736481 136.107224,105.993858 140.411896,105.993858 
	C140.944321,108.202469 141.421631,110.182396 141.853241,112.565163 
z"/>
<path fill="#067AF0" opacity="1.000000" stroke="none" 
	d="
M224.993805,338.643799 
	C225.287003,340.646698 225.557800,342.445312 225.906631,344.623688 
	C221.373627,344.699646 220.420929,341.034393 219.548416,337.278625 
	C221.294418,336.943634 222.689972,336.947479 224.085541,336.951324 
	C224.085541,336.951324 224.023621,336.971527 224.129227,337.149597 
	C224.406921,337.592682 224.607635,337.833832 224.836990,338.051178 
	C224.836990,338.051178 224.971405,338.439545 224.993805,338.643799 
z"/>
<path fill="#0C79E5" opacity="1.000000" stroke="none" 
	d="
M145.031250,257.634521 
	C143.699768,258.798187 142.313629,259.620483 140.493317,260.700317 
	C139.420517,259.210480 138.430237,257.835236 137.580505,256.655182 
	C139.307770,255.438690 140.619949,254.514526 141.985703,253.283051 
	C143.018372,254.414871 143.997482,255.853989 145.031250,257.634521 
z"/>
<path fill="#1179DE" opacity="1.000000" stroke="none" 
	d="
M168.845642,267.621765 
	C163.594894,269.282410 158.582489,268.387848 154.019684,264.541565 
	C158.831909,265.219574 163.730743,266.246185 168.845642,267.621765 
z"/>
<path fill="#0F7AE6" opacity="1.000000" stroke="none" 
	d="
M140.998703,207.998169 
	C140.241318,207.989120 139.483932,207.980087 138.348541,207.949097 
	C139.735107,206.626022 141.499680,205.324875 143.614731,203.982483 
	C144.075287,205.978683 144.185379,208.016144 144.365219,211.344254 
	C142.812622,210.064774 141.961838,209.363647 141.095001,208.309311 
	C141.078979,207.956100 140.998703,207.998169 140.998703,207.998169 
z"/>
<path fill="#1179DE" opacity="1.000000" stroke="none" 
	d="
M187.958557,275.665649 
	C184.472092,277.618896 181.219101,278.447540 181.032806,272.324036 
	C183.295807,273.080017 185.557693,274.210114 187.958557,275.665649 
z"/>
<path fill="#0F7AE6" opacity="1.000000" stroke="none" 
	d="
M136.644165,209.049011 
	C137.827240,210.824722 138.712662,212.718781 140.047104,215.573318 
	C137.117325,214.390213 135.390900,213.693054 133.306000,212.966812 
	C134.080521,211.680954 135.213516,210.424164 136.644165,209.049011 
z"/>
<path fill="#1879DE" opacity="1.000000" stroke="none" 
	d="
M224.043945,336.593994 
	C222.689972,336.947479 221.294418,336.943634 219.483551,336.922852 
	C219.068237,336.905914 219.066406,336.495972 219.069824,336.291840 
	C219.128021,334.566406 219.182816,333.045074 219.146454,331.213989 
	C220.704330,332.681702 222.353333,334.459167 224.043945,336.593994 
z"/>
<path fill="#187BE1" opacity="1.000000" stroke="none" 
	d="
M176.988556,328.987061 
	C178.357925,327.943573 179.808426,326.984802 181.674988,326.063721 
	C182.091064,326.101440 182.240585,326.266510 182.113800,326.566254 
	C181.652542,327.904480 181.318069,328.942963 180.983582,329.981415 
	C180.983582,329.981415 181.000351,329.998260 180.690781,329.861877 
	C179.331482,329.563995 178.281754,329.402435 177.232025,329.240906 
	C177.232025,329.240906 177.069672,329.071716 176.988556,328.987061 
z"/>
<path fill="#0C79E5" opacity="1.000000" stroke="none" 
	d="
M148.409912,220.011703 
	C149.186127,219.047638 150.296661,218.069977 151.762207,217.071075 
	C150.992889,218.032593 149.868561,219.015350 148.409912,220.011703 
z"/>
<path fill="#1179DE" opacity="1.000000" stroke="none" 
	d="
M176.924088,269.652313 
	C175.217651,269.507507 173.333862,269.032379 171.232834,268.264587 
	C172.925980,268.421936 174.836365,268.871979 176.924088,269.652313 
z"/>
<path fill="#0F7AE6" opacity="1.000000" stroke="none" 
	d="
M147.678894,201.935120 
	C146.903702,202.564758 145.786179,203.257568 144.306427,203.957443 
	C145.074997,203.309097 146.205780,202.653687 147.678894,201.935120 
z"/>
<path fill="#187BE1" opacity="1.000000" stroke="none" 
	d="
M184.885834,324.124451 
	C185.155518,324.589783 185.080551,324.975769 184.623520,325.677917 
	C183.574493,326.084900 182.907547,326.175720 182.240585,326.266510 
	C182.240585,326.266510 182.091064,326.101440 182.016235,326.018951 
	C182.808014,325.306000 183.674591,324.675568 184.885834,324.124451 
z"/>
<path fill="#1879DE" opacity="1.000000" stroke="none" 
	d="
M224.869400,337.777618 
	C224.607635,337.833832 224.406921,337.592682 224.128693,337.117065 
	C224.315628,337.105621 224.608719,337.304840 224.869400,337.777618 
z"/>
<path fill="#0F7AE6" opacity="1.000000" stroke="none" 
	d="
M150.636902,200.967377 
	C150.638931,201.137924 150.279709,201.360977 149.639084,201.731186 
	C149.663666,201.592194 149.969650,201.306046 150.636902,200.967377 
z"/>
<path fill="#0F7AE6" opacity="1.000000" stroke="none" 
	d="
M137.709686,208.025833 
	C137.782516,208.231750 137.562363,208.477753 137.106628,208.839661 
	C137.087799,208.690216 137.269684,208.393677 137.709686,208.025833 
z"/>
<path fill="#0C79E5" opacity="1.000000" stroke="none" 
	d="
M147.300110,220.970551 
	C147.211990,220.759598 147.411957,220.525528 147.838226,220.188660 
	C147.867767,220.340622 147.708984,220.627823 147.300110,220.970551 
z"/>
<path fill="#0F7AE6" opacity="1.000000" stroke="none" 
	d="
M168.016647,283.289398 
	C168.129684,283.040405 168.326523,283.033813 168.818695,283.036072 
	C168.776169,283.207245 168.438309,283.369537 168.016647,283.289398 
z"/>
<path fill="#1179DE" opacity="1.000000" stroke="none" 
	d="
M192.020050,279.714111 
	C191.849670,279.754913 191.586899,279.538727 191.170319,279.117828 
	C191.320236,279.094452 191.623932,279.275787 192.020050,279.714111 
z"/>
<path fill="#1179DE" opacity="1.000000" stroke="none" 
	d="
M189.990356,277.728821 
	C189.817505,277.767883 189.562759,277.550781 189.163513,277.127441 
	C189.315506,277.105042 189.611969,277.288849 189.990356,277.728821 
z"/>
<path fill="#1179DE" opacity="1.000000" stroke="none" 
	d="
M170.957672,267.735992 
	C170.843979,267.986115 170.663559,267.992950 170.212158,267.992065 
	C170.257782,267.820465 170.574356,267.656586 170.957672,267.735992 
z"/>
<path fill="#1179DE" opacity="1.000000" stroke="none" 
	d="
M180.979675,271.721985 
	C180.773544,271.866760 180.520432,271.709869 180.134521,271.350403 
	C180.283661,271.284485 180.593979,271.375305 180.979675,271.721985 
z"/>
<path fill="#1179DE" opacity="1.000000" stroke="none" 
	d="
M178.990143,270.732941 
	C178.790344,270.883728 178.528046,270.733765 178.130615,270.374359 
	C178.277176,270.304779 178.587891,270.393890 178.990143,270.732941 
z"/>
<path fill="#0179F4" opacity="1.000000" stroke="none" 
	d="
M191.968140,309.002441 
	C191.646469,307.904602 191.324799,306.806763 190.961151,305.366821 
	C192.007935,305.015808 193.096680,305.006897 194.898438,304.835449 
	C196.741898,301.783630 197.872375,298.894318 199.002853,296.005035 
	C204.545776,298.021271 201.004089,301.351685 199.955475,305.004181 
	C198.617294,311.286255 199.865829,316.345764 203.000793,320.998901 
	C203.554153,322.149719 204.107498,323.300568 204.533401,324.732635 
	C203.694595,325.412506 202.983231,325.811096 202.271881,326.209717 
	C202.588333,326.535187 202.904800,326.860626 203.221252,327.186096 
	C203.814163,326.457397 204.407074,325.728699 204.999985,325.000000 
	C205.798996,326.439789 206.598007,327.879547 207.397003,329.319305 
	C206.719696,329.682098 205.777878,330.527405 205.410019,330.325714 
	C203.644073,329.357605 201.620209,328.414398 200.473801,326.876526 
	C199.096619,325.029053 198.513550,322.589600 197.292786,319.753632 
	C196.998047,316.399994 196.997192,313.699188 196.885880,310.723755 
	C196.184143,309.966492 195.592850,309.483856 194.622772,309.001099 
	C193.485367,309.001495 192.726746,309.001984 191.968140,309.002441 
z"/>
<path fill="#0179F1" opacity="1.000000" stroke="none" 
	d="
M196.996338,310.998383 
	C196.997192,313.699188 196.998047,316.399994 196.998596,319.550964 
	C196.752060,320.197174 196.521957,320.410583 196.154510,320.820099 
	C194.854294,320.780884 193.707550,320.562988 192.262833,320.153534 
	C191.966385,316.613770 191.967911,313.265564 191.968781,309.459900 
	C192.726746,309.001984 193.485367,309.001495 194.733490,309.275635 
	C195.814117,310.032990 196.405228,310.515686 196.996338,310.998383 
z"/>
<path fill="#0179F1" opacity="1.000000" stroke="none" 
	d="
M203.193390,320.654724 
	C199.865829,316.345764 198.617294,311.286255 199.855713,305.361206 
	C202.240540,309.857910 205.426758,314.506470 203.193390,320.654724 
z"/>
<path fill="#0179F1" opacity="1.000000" stroke="none" 
	d="
M198.743378,295.902344 
	C197.872375,298.894318 196.741898,301.783630 195.305115,304.835846 
	C195.308716,301.609711 193.946213,297.587036 198.743378,295.902344 
z"/>
<path fill="#067AF0" opacity="1.000000" stroke="none" 
	d="
M177.140198,329.598145 
	C178.281754,329.402435 179.331482,329.563995 180.682434,329.850403 
	C180.265671,331.690552 179.846054,333.628296 178.767502,335.074646 
	C176.530441,338.074493 172.443481,339.793243 172.546875,344.418854 
	C172.552032,344.649475 171.246994,344.909393 170.250595,345.054474 
	C171.515701,341.866455 173.129944,338.802551 174.630722,335.684052 
	C175.528442,333.818695 176.248489,331.867859 177.140198,329.598145 
z"/>
<path fill="#067AF0" opacity="1.000000" stroke="none" 
	d="
M182.113800,326.566254 
	C182.907547,326.175720 183.574493,326.084900 184.576843,325.968750 
	C186.682755,327.355499 188.453262,328.767609 190.502960,330.402344 
	C189.523743,333.530182 188.124115,335.132843 184.874451,332.157959 
	C183.953003,331.314423 182.769806,330.756805 181.345123,330.024719 
	C181.318069,328.942963 181.652542,327.904480 182.113800,326.566254 
z"/>
<path fill="#067AF0" opacity="1.000000" stroke="none" 
	d="
M191.069717,324.174255 
	C190.981781,323.956879 190.991440,323.478729 191.000458,323.239807 
	C191.496735,323.520996 191.984009,324.041138 192.471268,324.561218 
	C192.033401,324.504700 191.595520,324.448151 191.069717,324.174255 
z"/>
<path fill="#067AF0" opacity="1.000000" stroke="none" 
	d="
M140.999359,207.999084 
	C140.998703,207.998169 141.078979,207.956100 141.040405,207.978699 
	C141.001831,208.001282 141.000000,208.000000 140.999359,207.999084 
z"/>
<path fill="#067AF0" opacity="1.000000" stroke="none" 
	d="
M204.702972,325.006958 
	C204.407074,325.728699 203.814163,326.457397 203.221252,327.186096 
	C202.904800,326.860626 202.588333,326.535187 202.271881,326.209717 
	C202.983231,325.811096 203.694595,325.412506 204.702972,325.006958 
z"/>
<path fill="#067AF0" opacity="1.000000" stroke="none" 
	d="
M196.885880,310.723755 
	C196.405228,310.515686 195.814117,310.032990 195.112289,309.275757 
	C195.592850,309.483856 196.184143,309.966492 196.885880,310.723755 
z"/>
</svg>