<?xml version="1.0" encoding="iso-8859-1"?>
<!-- Uploaded to: SVG Repo, www.svgrepo.com, Generator: SVG Repo Mixer Tools -->
<svg height="800px" width="800px" version="1.1" id="Layer_1" xmlns="http://www.w3.org/2000/svg" xmlns:xlink="http://www.w3.org/1999/xlink" 
	 viewBox="0 0 512 512" xml:space="preserve">
<path style="fill:#C13421;" d="M503.395,149.054c0,65.635-52.974,118.842-118.319,118.842s-118.319-53.207-118.319-118.842
	S319.73,30.212,385.076,30.212S503.395,83.42,503.395,149.054z"/>
<path style="fill:#FF4328;" d="M478.486,149.054c0,51.816-41.82,93.823-93.41,93.823s-93.41-42.006-93.41-93.823
	c0-51.816,41.822-93.822,93.41-93.822S478.486,97.238,478.486,149.054z"/>
<path style="fill:#CAEEC5;" d="M224.054,432.585c-118.5,0-215.449-96.729-215.449-214.954v-71.649h430.903v71.649
	C439.508,335.856,342.554,432.585,224.054,432.585L224.054,432.585L224.054,432.585z"/>
<path style="fill:#7E9332;" d="M374.319,338.121c0,15.45-3.816,29.999-10.527,42.776C221.051,506.622,36.571,392.099,13.716,264.064
	c15.142-11.167,33.823-17.776,54.048-17.776c17.805,0,34.407,5.13,48.459,13.971c1.185-49.682,41.624-89.598,91.373-89.598
	c45.416,0,83.08,33.267,90.2,76.86C341.197,254.674,374.319,292.504,374.319,338.121z"/>
<path d="M442.95,494.752c0,4.774-3.853,8.643-8.605,8.643H19.361c-4.753,0-8.605-3.87-8.605-8.643s3.852-8.643,8.605-8.643h414.984
	C439.097,486.109,442.95,489.979,442.95,494.752z M443.665,262.063c-8.643,42.61-29.692,81.866-61.369,113.47
	c-42.438,42.339-98.635,65.656-158.242,65.656c-59.606,0-115.803-23.318-158.239-65.656C23.373,333.191,0,277.113,0,217.631v-71.648
	c0-4.753,3.852-8.605,8.605-8.605h67.739L9.759,21.572c-2.376-4.134-0.966-9.42,3.148-11.807c4.118-2.387,9.378-0.971,11.756,3.162
	l71.554,124.45H258.69c5.892-64.821,60.32-115.77,126.385-115.77C455.062,21.607,512,78.779,512,149.053
	C512,198.116,484.235,240.771,443.665,262.063z M430.902,154.588H106.113l63.048,109.656c19.806-6.811,42.056,1.118,52.888,19.785
	l28.988,48.551c2.444,4.094,1.122,9.402-2.954,11.858c-4.077,2.454-9.362,1.126-11.806-2.967l-29.017-48.599
	c-0.02-0.034-0.041-0.069-0.06-0.103c-7.222-12.483-23.522-17.194-36.335-10.505c-0.345,0.18-0.669,0.355-0.986,0.538
	c-6.301,3.629-10.803,9.512-12.685,16.569c-1.866,6.995-0.921,14.268,2.661,20.488l28.988,48.551
	c2.444,4.094,1.122,9.402-2.955,11.858c-1.385,0.835-2.911,1.233-4.417,1.233c-2.925,0-5.775-1.497-7.389-4.199l-29.021-48.606
	c-0.019-0.033-0.041-0.068-0.06-0.102c-5.925-10.238-7.498-22.204-4.433-33.695c2.318-8.688,7.068-16.285,13.668-22.041
	L86.239,154.588H17.21v63.043c0,113.781,92.789,206.349,206.844,206.349c114.057,0,206.849-92.568,206.849-206.349v-63.043H430.902z
	 M494.79,149.054c0-60.785-49.218-110.236-109.714-110.236c-56.572,0-103.275,43.245-109.097,98.56h163.528
	c4.752,0,8.605,3.852,8.605,8.605v71.648c0,7.52-0.376,14.986-1.115,22.375C475.836,220.124,494.79,186.773,494.79,149.054z
	 M267.374,283.066h2.054c4.752,0,8.605-3.87,8.605-8.643c0-4.774-3.853-8.643-8.605-8.643h-2.054c-4.752,0-8.605,3.87-8.605,8.643
	S262.622,283.066,267.374,283.066z M284.226,362.969h2.054c4.752,0,8.605-3.87,8.605-8.643c0-4.774-3.853-8.643-8.605-8.643h-2.054
	c-4.752,0-8.605,3.87-8.605,8.643C275.621,359.1,279.472,362.969,284.226,362.969z M84.706,277.372h-2.054
	c-4.752,0-8.605,3.87-8.605,8.643c0,4.774,3.853,8.643,8.605,8.643h2.054c4.752,0,8.605-3.87,8.605-8.643
	C93.311,281.242,89.459,277.372,84.706,277.372z M339.996,322.53h2.054c4.752,0,8.605-3.87,8.605-8.643
	c0-4.774-3.853-8.643-8.605-8.643h-2.054c-4.752,0-8.605,3.87-8.605,8.643C331.391,318.661,335.243,322.53,339.996,322.53z
	 M200.895,233.324c2.259,0,4.475-0.919,6.077-2.528c1.603-1.61,2.528-3.836,2.528-6.115c0-2.279-0.925-4.505-2.528-6.115
	s-3.818-2.528-6.077-2.528c-2.27,0-4.485,0.919-6.088,2.528c-1.603,1.61-2.517,3.836-2.517,6.115c0,2.279,0.914,4.505,2.517,6.115
	C196.41,232.406,198.626,233.324,200.895,233.324z M387.635,116.644h-2.448c-4.752,0-8.605,3.87-8.605,8.643
	c0,4.774,3.853,8.643,8.605,8.643h2.448c4.752,0,8.605-3.87,8.605-8.643C396.24,120.513,392.387,116.644,387.635,116.644z
	 M425.83,94.473l-2.052,2.047c-3.372,3.363-3.39,8.836-0.042,12.223c1.682,1.702,3.894,2.552,6.105,2.552
	c2.192,0,4.385-0.837,6.064-2.511l2.052-2.047c3.372-3.363,3.39-8.836,0.042-12.222C434.649,91.126,429.201,91.108,425.83,94.473z
	 M346.996,94.476c-3.372-3.365-8.82-3.348-12.17,0.038c-3.35,3.386-3.333,8.858,0.038,12.223l2.052,2.048
	c1.679,1.676,3.872,2.513,6.065,2.513c2.211,0,4.422-0.851,6.103-2.55c3.35-3.385,3.333-8.858-0.038-12.223L346.996,94.476z
	 M386.41,93.348c4.753,0,8.605-3.869,8.605-8.643V81.81c0-4.774-3.852-8.643-8.605-8.643c-4.752,0-8.605,3.87-8.605,8.643v2.895
	C377.805,89.479,381.657,93.348,386.41,93.348z M190.803,301.88c-2.445-4.094-7.731-5.422-11.805-2.967
	c-4.077,2.456-5.399,7.764-2.955,11.858l29.02,48.606c1.613,2.702,4.464,4.199,7.389,4.199c1.506,0,3.031-0.398,4.417-1.233
	c4.077-2.455,5.399-7.764,2.955-11.858L190.803,301.88z"/>
</svg>