<?xml version="1.0" encoding="iso-8859-1"?>
<!-- Uploaded to: SVG Repo, www.svgrepo.com, Generator: SVG Repo Mixer Tools -->
<svg height="800px" width="800px" version="1.1" id="Layer_1" xmlns="http://www.w3.org/2000/svg" xmlns:xlink="http://www.w3.org/1999/xlink" 
	 viewBox="0 0 512 512" xml:space="preserve">
<path style="fill:#9ED368;" d="M0,256.006C0,397.402,114.606,512.004,255.996,512C397.394,512.004,512,397.402,512,256.006
	C512.009,114.61,397.394,0,255.996,0C114.606,0,0,114.614,0,256.006z"/>
<path style="fill:#8BC052;" d="M497.433,341.177c-0.394-0.395-236.689-236.689-236.977-236.969
	c-2.497-2.419-6.447-2.413-8.925,0.013c-4.128,4.025-101.131,99.722-101.131,197.462c0,30.223,12.256,57.543,31.911,77.154
	c0.487,0.507,0.991,0.992,1.488,1.488c0.487,0.506,124.505,124.506,124.998,124.997c0.319,0.332,0.647,0.653,0.975,0.975
	C397.26,487.595,468.14,424.219,497.433,341.177z"/>
<g>
	<path style="fill:#F4F6F9;" d="M259.2,364.802c-35.291,0-64-28.709-64-64c0-3.534-2.866-6.4-6.4-6.4c-3.534,0-6.4,2.866-6.4,6.4
		c0,42.347,34.453,76.8,76.8,76.8c3.534,0,6.4-2.866,6.4-6.4C265.6,367.668,262.734,364.802,259.2,364.802z"/>
	<path style="fill:#F4F6F9;" d="M260.457,104.208c-2.497-2.419-6.447-2.413-8.925,0.013
		c-4.129,4.025-101.132,99.722-101.132,197.462c0,59.506,47.372,107.919,105.6,107.919s105.6-48.413,105.6-107.919
		C361.6,203.402,264.585,108.211,260.457,104.208z M256,396.802c-51.169,0-92.8-42.669-92.8-95.119
		c0-80.769,73.728-163.634,92.813-183.725c19.09,20.01,92.787,102.512,92.787,183.725C348.8,354.133,307.169,396.802,256,396.802z"
		/>
</g>
</svg>